<svg xmlns="http://www.w3.org/2000/svg" id="tracket-logo" viewBox="0 0 1024 768" height="768px" width="1024px"
	 version="1.1">
	<g id="logo-group">
		<g id="logo-center">
			<g id="title">
				<g id="path623174" aria-label="t"
				   transform="translate(0 317.81656) translate(302.3125791999999 40.34048) scale(1.43) translate(-380.69675 44.064)">
					<path class="c1"
						  d="M106.36348,113.47355v9.77844c-6.89941,0-17.72852-1.4552-17.72852-13.25342V98.49418H84.9167V88.10294 h3.71826V77.92912h11.78369v30.0022C100.41866,109.95036,101.51387,113.47355,106.36348,113.47355z"
						  transform="translate(295.78005 -121.99312)" stroke-width="0" stroke-linejoin="miter"
						  stroke-miterlimit="2" fill="#5e8ed9" stroke="#5e8ed9"/>
					<path class="c3"
						  d="M102.66182,94.82755c0-3.72119,2.92334-6.73901,6.53027-6.73901c3.60596,0,6.5293,3.01782,6.5293,6.73901 c0,3.72205-2.92334,6.73914-6.5293,6.73914C105.58516,101.56669,102.66182,98.5496,102.66182,94.82755z"
						  transform="translate(295.78005 -121.99312)" stroke-width="0" stroke-linejoin="miter"
						  stroke-miterlimit="2" fill="#56c8be" stroke="#56c8be"/>
				</g>
				<g id="path623176" aria-label="r"
				   transform="translate(0 317.81656) translate(360.09799259999994 54.85784) scale(1.43) translate(-416.10613 33.912)">
					<path class="c1" d="M87.58076,121.99625V88.10294h11.78369v33.89331H87.58076z"
						  transform="translate(328.52537 -122.00054)" stroke-width="0" stroke-linejoin="miter"
						  stroke-miterlimit="2" fill="#5e8ed9" stroke="#5e8ed9"/>
					<path class="c3"
						  d="M101.76241,94.82755c0-3.72119,2.92334-6.73901,6.53027-6.73901c3.60596,0,6.5293,3.01782,6.5293,6.73901 c0,3.72205-2.92334,6.73914-6.5293,6.73914C104.68575,101.56669,101.76241,98.5496,101.76241,94.82755z"
						  transform="translate(328.52537 -122.00054)" stroke-width="0" stroke-linejoin="miter"
						  stroke-miterlimit="2" fill="#56c8be" stroke="#56c8be"/>
				</g>
				<g id="path623178" aria-label="a"
				   transform="translate(0 317.81656) translate(410.7341066999999 53.416399999999996) scale(1.43) translate(-446.516 34.92)">
					<path class="c1"
						  d="M106.69954,88.03019h11.78455v33.96533h-11.78455v-2.93787 c-2.82764,2.60876-6.46326,4.17859-10.42932,4.17859c-9.01453,0-16.32178-8.10144-16.32178-18.09521 s7.30725-18.09521,16.32178-18.09521c3.96606,0,7.60168,1.57056,10.42932,4.17786V88.03019z M106.69954,105.14103 c0-4.3009-3.05457-7.78821-7.17908-7.78821s-7.46777,3.4873-7.46777,7.78821c0,4.30164,3.34326,7.78894,7.46777,7.78894 S106.69954,109.44193,106.69954,105.14103z"
						  transform="translate(366.56756 -121.96582)" stroke-width="0" stroke-linejoin="miter"
						  stroke-miterlimit="2" fill="#5e8ed9" stroke="#5e8ed9"/>
				</g>
				<g id="path623180" aria-label="c"
				   transform="translate(0 317.81656) translate(481.02754419999997 53.21048) scale(1.43) translate(-490.67225 35.064)">
					<path class="c1"
						  d="M118.20796,110.26359c0,3.43896-2.3999,13.07922-17.44263,13.07922 c-14.42944,0-18.80103-10.77429-18.80103-18.03687c0-5.52869,2.69971-18.36731,18.34937-18.36731 c11.88916,0,16.39014,7.68298,17.32544,13.07837H107.1501c0-2.58789-1.98755-5.32764-7.0647-5.32764 c-3.00391,0-6.23926,2.96228-6.23926,9.41406c0,4.03955,1.21338,10.78223,6.98315,10.78223 c3.54346,0,5.85986-1.76709,6.08301-4.62207H118.20796z"
						  transform="translate(408.70795 -122.00263)" stroke-width="0" stroke-linejoin="miter"
						  stroke-miterlimit="2" fill="#5e8ed9" stroke="#5e8ed9"/>
				</g>
				<g id="path623182" aria-label="k"
				   transform="translate(0 317.81656) translate(547.6514301 27.058640000000004) scale(1.43) translate(-532.26238 53.352)">
					<path class="c1"
						  d="M121.91841,121.99699h-16.63623l-8.9563-10.08594l-3.44092-3.86963v13.95483H81.10103V68.62162h11.78394 v31.80225l4.30078-4.47656l7.54272-7.84656h15.94287l-16.04077,15.68652L121.91841,121.99699z"
						  transform="translate(451.16135 -121.97362)" stroke-width="0" stroke-linejoin="miter"
						  stroke-miterlimit="2" fill="#5e8ed9" stroke="#5e8ed9"/>
				</g>
				<g id="path623184" aria-label="e"
				   transform="translate(0 317.81656) translate(612.6681533 53.107519999999994) scale(1.43) translate(-572.72862 35.136)">
					<path class="c1"
						  d="M106.71529,109.6724h11.26465c0,11.86011-12.58813,13.56531-17.79419,13.56531 s-18.47314-3.2511-18.47314-18.02246s11.45825-18.36951,18.34863-18.36951c10.64673,0,15.6311,5.49048,17.28784,13.28149 c0.4646,2.16309,0.67261,4.4989,0.67261,6.93848H93.48994c0,5.55249,2.90405,7.72925,7.08398,7.72925 C104.75313,114.79496,106.71529,112.44535,106.71529,109.6724z M93.7729,100.12724h13.20532l-0.07642-0.04822 c0-2.49573-1.88501-5.50415-6.52222-5.50415C95.74947,94.57487,93.77364,97.88859,93.7729,100.12724z"
						  transform="translate(491.01601 -121.98174)" stroke-width="0" stroke-linejoin="miter"
						  stroke-miterlimit="2" fill="#5e8ed9" stroke="#5e8ed9"/>
				</g>
				<g id="path623186" aria-label="t"
				   transform="translate(0 317.81656) translate(677.6205408 40.34048) scale(1.43) translate(-613.14987 44.064)">
					<path class="c1"
						  d="M106.36348,113.47355v9.77844c-6.89941,0-17.72852-1.4552-17.72852-13.25342V98.49418H84.9167V88.10294 h3.71826V77.92912h11.78369v30.0022C100.41866,109.95036,101.51387,113.47355,106.36348,113.47355z"
						  transform="translate(528.23317 -121.99312)" stroke-width="0" stroke-linejoin="miter"
						  stroke-miterlimit="2" fill="#5e8ed9" stroke="#5e8ed9"/>
					<path class="c3"
						  d="M102.66182,94.82755c0-3.72119,2.92334-6.73901,6.53027-6.73901c3.60596,0,6.5293,3.01782,6.5293,6.73901 c0,3.72205-2.92334,6.73914-6.5293,6.73914C105.58516,101.56669,102.66182,98.5496,102.66182,94.82755z"
						  transform="translate(528.23317 -121.99312)" stroke-width="0" stroke-linejoin="miter"
						  stroke-miterlimit="2" fill="#56c8be" stroke="#56c8be"/>
				</g>
			</g>
		</g>
	</g>
</svg>
